<svg height="512" viewBox="0 0 60 60" width="512" xmlns="http://www.w3.org/2000/svg" xmlns:xlink="http://www.w3.org/1999/xlink"><linearGradient id="linearGradient-1" x1="7.104%" x2="92.896%" y1="-3.641%" y2="109.356%"><stop offset="0" stop-color="#d3dff2"/><stop offset=".172" stop-color="#d3dff2"/><stop offset=".2" stop-color="#d3dff2"/><stop offset=".2" stop-color="#dae2f2"/><stop offset=".201" stop-color="#ebeaf2"/><stop offset=".201" stop-color="#f6eff2"/><stop offset=".202" stop-color="#fdf2f2"/><stop offset=".205" stop-color="#fff3f2"/><stop offset=".252" stop-color="#fff3f2"/><stop offset=".26" stop-color="#fff3f2"/><stop offset=".26" stop-color="#d3dff2"/><stop offset=".397" stop-color="#d3dff2"/><stop offset=".42" stop-color="#d3dff2"/><stop offset=".42" stop-color="#dae2f2"/><stop offset=".421" stop-color="#ebeaf2"/><stop offset=".421" stop-color="#f6eff2"/><stop offset=".422" stop-color="#fdf2f2"/><stop offset=".425" stop-color="#fff3f2"/><stop offset=".489" stop-color="#fff3f2"/><stop offset=".5" stop-color="#fff3f2"/><stop offset=".5" stop-color="#f8f0f2"/><stop offset=".5" stop-color="#e7e8f2"/><stop offset=".5" stop-color="#dce3f2"/><stop offset=".5" stop-color="#d5e0f2"/><stop offset=".501" stop-color="#d3dff2"/><stop offset=".706" stop-color="#d3dff2"/><stop offset=".74" stop-color="#d3dff2"/><stop offset=".741" stop-color="#fff3f2"/><stop offset=".835" stop-color="#fff3f2"/><stop offset=".85" stop-color="#fff3f2"/><stop offset=".851" stop-color="#d3dff2"/></linearGradient><g id="Page-1" fill="none" fill-rule="evenodd"><g id="007---Server-Analytics" fill-rule="nonzero"><path id="Shape" d="m53 59h-46c-3.3137085 0-6-2.6862915-6-6v-3c0-.5522847.44771525-1 1-1h56c.5522847 0 1 .4477153 1 1v3c0 3.3137085-2.6862915 6-6 6z" fill="#e8edfc"/><path id="Shape" d="m58 49h-3c.5522847 0 1 .4477153 1 1v3c0 3.3137085-2.6862915 6-6 6h3c3.3137085 0 6-2.6862915 6-6v-3c0-.5522847-.4477153-1-1-1z" fill="#cad9fc"/><path id="Shape" d="m20 49h20v2c0 1.6568542-1.3431458 3-3 3h-14c-1.6568542 0-3-1.3431458-3-3z" fill="#a4c2f7"/><path id="Shape" d="m57 12v37h-54v-37c0-2.209139 1.790861-4 4-4v21c0 2.21 5.37 4 12 4s12-1.79 12-4v-21h22c2.209139 0 4 1.790861 4 4z" fill="url(#linearGradient-1)"/><path id="Shape" d="m53 8h-3c2.209139 0 4 1.790861 4 4v37h3v-37c0-2.209139-1.790861-4-4-4z" fill="#a4c2f7"/><path id="Shape" d="m31 5c0 1.2-1.58 2.27-4.07 3-2.584676.69689441-5.2532304 1.0334082-7.93 1-6.63 0-12-1.79-12-4s5.37-4 12-4 12 1.79 12 4z" fill="#e8edfc"/><path id="Shape" d="m31 21v8c0 2.21-5.37 4-12 4s-12-1.79-12-4v-8c0 2.21 5.37 4 12 4s12-1.79 12-4z" fill="#e8edfc"/><path id="Shape" d="m31 13v8c0 2.21-5.37 4-12 4s-12-1.79-12-4v-8c0 2.21 5.37 4 12 4s12-1.79 12-4z" fill="#e8edfc"/><path id="Shape" d="m31 5v8c0 2.21-5.37 4-12 4s-12-1.79-12-4v-8c0 2.21 5.37 4 12 4 2.6767696.0334082 5.345324-.30310559 7.93-1 2.49-.73 4.07-1.8 4.07-3z" fill="#e8edfc"/><path id="Shape" d="m10 41h2c.5522847 0 1 .4477153 1 1v3h-4v-3c0-.5522847.44771525-1 1-1z" fill="#a4c2f7"/><path id="Shape" d="m18 38h2c.5522847 0 1 .4477153 1 1v6h-4v-6c0-.5522847.4477153-1 1-1z" fill="#a4c2f7"/><path id="Shape" d="m26 36h2c.5522847 0 1 .4477153 1 1v8h-4v-8c0-.5522847.4477153-1 1-1z" fill="#a4c2f7"/><path id="Shape" d="m7 59h3c-3.3137085 0-6-2.6862915-6-6v-3c0-.5522847.44771525-1 1-1h1v-37c0-2.209139 1.790861-4 4-4v-3c0-2.04 4.58-3.719 10.5-3.966-.492-.02-.991-.034-1.5-.034-6.63 0-12 1.79-12 4v3c-2.209139 0-4 1.790861-4 4v37h-1c-.55228475 0-1 .4477153-1 1v3c0 3.3137085 2.6862915 6 6 6z" fill="#fff"/><path id="Rectangle-path" d="m2 41h2v8h-2z" fill="#fff"/><g fill="#428dff"><circle id="Oval" cx="6" cy="53" r="1"/><circle id="Oval" cx="9" cy="53" r="1"/><circle id="Oval" cx="36" cy="13" r="1"/><circle id="Oval" cx="11" cy="12" r="1"/><circle id="Oval" cx="11" cy="20" r="1"/><circle id="Oval" cx="11" cy="28" r="1"/><circle id="Oval" cx="36" cy="18" r="1"/><circle id="Oval" cx="36" cy="23" r="1"/><circle id="Oval" cx="36" cy="28" r="1"/><circle id="Oval" cx="36" cy="33" r="1"/><circle id="Oval" cx="36" cy="38" r="1"/><circle id="Oval" cx="36" cy="43" r="1"/><path id="Shape" d="m3.02 46c-.55228473.0027614-1.00223852-.4427153-1.00499994-.995-.00276143-.5522847.44271521-1.0022385.99499994-1.005h.01c.55228475 0 1 .4477153 1 1s-.44771525 1-1 1z"/><path id="Shape" d="m58 48v-36c-.0033061-2.76005315-2.2399468-4.99669388-5-5h-21v-2c0-3.283-6.54-5-13-5s-13 1.717-13 5v2.1c-2.3264168.47843265-3.99700171 2.52489917-4 4.9v29c.00000001.5522847.44771526 1 1 1s.99999999-.4477153 1-1v-29c.00525139-1.2667854.80564913-2.39374545 2-2.816v19.816c0 3.283 6.54 5 13 5s13-1.717 13-5v-20h21c1.6568542 0 3 1.3431458 3 3v36h-54c-1.1045695 0-2 .8954305-2 2v3c.00440864 3.8641657 3.13583434 6.9955914 7 7h46c3.8641657-.0044086 6.9955914-3.1358343 7-7v-3c0-1.1045695-.8954305-2-2-2zm-28-19c0 1.018-3.883 3-11 3s-11-1.982-11-3v-5.217c2.426 1.46 6.725 2.217 11 2.217s8.574-.757 11-2.217zm0-8c0 1.018-3.883 3-11 3s-11-1.982-11-3v-5.217c2.426 1.46 6.725 2.217 11 2.217s8.574-.757 11-2.217zm0-8c0 1.018-3.883 3-11 3s-11-1.982-11-3v-5.217c2.426 1.46 6.725 2.217 11 2.217 2.7718178.031707 5.5347905-.31858584 8.211-1.041.9742561-.26655359 1.9112349-.65424577 2.789-1.154zm-3.353-5.959c-2.4930525.66836379-5.0661098.99104745-7.647.959-7.117 0-11-1.982-11-3s3.883-3 11-3 11 1.982 11 3c0 .425-.893 1.319-3.353 2.041zm-5.647 42.959h18v1c0 1.1045695-.8954305 2-2 2h-14c-1.1045695 0-2-.8954305-2-2zm37 3c-.0033061 2.7600532-2.2399468 4.9966939-5 5h-46c-2.76005315-.0033061-4.99669388-2.2399468-5-5v-3h17v1c0 2.209139 1.790861 4 4 4h14c2.209139 0 4-1.790861 4-4v-1h17z"/><path id="Shape" d="m15 52h-3c-.5522847 0-1 .4477153-1 1s.4477153 1 1 1h3c.5522847 0 1-.4477153 1-1s-.4477153-1-1-1z"/><path id="Shape" d="m12 40h-2c-1.1045695 0-2 .8954305-2 2v2h-1c-.55228475 0-1 .4477153-1 1s.44771525 1 1 1h24c.5522847 0 1-.4477153 1-1s-.4477153-1-1-1h-1v-7c0-1.1045695-.8954305-2-2-2h-2c-1.1045695 0-2 .8954305-2 2v7h-2v-5c0-1.1045695-.8954305-2-2-2h-2c-1.1045695 0-2 .8954305-2 2v5h-2v-2c0-1.1045695-.8954305-2-2-2zm0 4h-2v-2h2zm14-7h2v7h-2zm-8 2h2v5h-2z"/><path id="Shape" d="m44 12h-4c-.5522847 0-1 .4477153-1 1s.4477153 1 1 1h4c.5522847 0 1-.4477153 1-1s-.4477153-1-1-1z"/><path id="Shape" d="m52 14c.5522847 0 1-.4477153 1-1s-.4477153-1-1-1h-4c-.5522847 0-1 .4477153-1 1s.4477153 1 1 1z"/><path id="Shape" d="m40 19h1c.5522847 0 1-.4477153 1-1s-.4477153-1-1-1h-1c-.5522847 0-1 .4477153-1 1s.4477153 1 1 1z"/><path id="Shape" d="m44 18c0 .5522847.4477153 1 1 1h7c.5522847 0 1-.4477153 1-1s-.4477153-1-1-1h-7c-.5522847 0-1 .4477153-1 1z"/><path id="Shape" d="m40 24h4c.5522847 0 1-.4477153 1-1s-.4477153-1-1-1h-4c-.5522847 0-1 .4477153-1 1s.4477153 1 1 1z"/><path id="Shape" d="m52 22h-4c-.5522847 0-1 .4477153-1 1s.4477153 1 1 1h4c.5522847 0 1-.4477153 1-1s-.4477153-1-1-1z"/><path id="Shape" d="m40 29h7c.5522847 0 1-.4477153 1-1s-.4477153-1-1-1h-7c-.5522847 0-1 .4477153-1 1s.4477153 1 1 1z"/><path id="Shape" d="m52 27h-1c-.5522847 0-1 .4477153-1 1s.4477153 1 1 1h1c.5522847 0 1-.4477153 1-1s-.4477153-1-1-1z"/><path id="Shape" d="m40 34h2c.5522847 0 1-.4477153 1-1s-.4477153-1-1-1h-2c-.5522847 0-1 .4477153-1 1s.4477153 1 1 1z"/><path id="Shape" d="m52 32h-6c-.5522847 0-1 .4477153-1 1s.4477153 1 1 1h6c.5522847 0 1-.4477153 1-1s-.4477153-1-1-1z"/><path id="Shape" d="m40 39h4c.5522847 0 1-.4477153 1-1s-.4477153-1-1-1h-4c-.5522847 0-1 .4477153-1 1s.4477153 1 1 1z"/><path id="Shape" d="m52 37h-4c-.5522847 0-1 .4477153-1 1s.4477153 1 1 1h4c.5522847 0 1-.4477153 1-1s-.4477153-1-1-1z"/><path id="Shape" d="m40 44h4c.5522847 0 1-.4477153 1-1s-.4477153-1-1-1h-4c-.5522847 0-1 .4477153-1 1s.4477153 1 1 1z"/><path id="Shape" d="m52 42h-4c-.5522847 0-1 .4477153-1 1s.4477153 1 1 1h4c.5522847 0 1-.4477153 1-1s-.4477153-1-1-1z"/></g></g></g></svg>